<svg xmlns="http://www.w3.org/2000/svg" viewBox="0 0 960 960"><path d="M904.525 11.108l.127.015a20.036 20.036 0 01.518.064 19.864 19.864 0 017.923 2.897 19.877 19.877 0 016.013 5.89 19.894 19.894 0 012.813 6.568c.373 1.623.535 3.264.498 4.887v28.72c0 9.783-7.076 18.13-16.727 19.73l-4.413.732v799.777l4.765.879c9.37 1.727 16.205 9.818 16.376 19.312v35.987a19.862 19.862 0 01-.328 4.06l-.014.077a19.901 19.901 0 01-3.815 8.506l-.008.01a19.851 19.851 0 01-3.08 3.187l-.011.01A19.935 19.935 0 01901.827 957L277 938.534C144.82 934.676 37.582 827.78 37.582 699.24v-450.94c0-128.728 107.53-233.379 239.898-234.103l624.452-3.197c.87-.02 1.735.016 2.593.107zm-139.65 213.946c0-37.09 12.229-80.148 33.706-118.338 11.707-20.817 25.739-39.548 41.665-55.399l-562.554 2.88c-110.641.606-200.11 87.678-200.11 194.105v450.94c0 106.609 89.752 196.074 200.59 199.309l560.513 16.558c-15.283-15.513-28.781-33.696-40.104-53.83-21.477-38.19-33.706-81.248-33.706-118.338zm40 517.887l.003.9c.204 29.745 10.512 65.726 28.568 97.831 8.115 14.43 17.477 27.579 27.832 39.082V87.241c-10.355 11.504-19.717 24.652-27.832 39.082-18.056 32.106-28.364 68.086-28.568 97.832l-.003.9zm-582.51-453.527l370.81.18c5.428.004 9.844 4.33 9.992 9.721l.004.28v370.81c0 5.55-4.515 10.02-10.03 10l-.277-.005-370.81-11.403a10 10 0 01-9.69-9.716l-.003-.279V299.414c0-5.524 4.48-10 10.005-10z"/></svg>