<svg xmlns="http://www.w3.org/2000/svg" viewBox="0 0 400 400"><path fill-rule="evenodd" d="M207.006.956C205.344 2.762 205 3.278 205 3.965c0 .367-.141.583-.312.479-.172-.104-.349.757-.392 1.914-.044 1.157-.243 2.215-.444 2.352-.376.257-1.13 4.812-1.609 9.728-.151 1.546-.404 2.812-.563 2.812-.33 0-1.141 8.663-1.501 16.042-.134 2.75-.423 5.375-.642 5.833-.426.891-.248 21.12.214 24.375.147 1.031.564 4.125.927 6.875.363 2.75.8 5.188.971 5.417.171.229.656 1.776 1.078 3.437.422 1.662.895 3.021 1.051 3.021.157 0 .397.562.534 1.25.138.687.643 2.112 1.123 3.166.48 1.053.768 2.188.64 2.521-.127.334-.062.501.146.373.208-.129.502.33.653 1.02.152.689.413 1.253.58 1.253.168 0 .556.985.863 2.188.307 1.203.829 2.604 1.161 3.114.332.51.632 1.663.667 2.562.035.899.204 1.548.376 1.444.172-.105.312.196.312.668 0 .472.168.858.372.858.205 0 .702 1.359 1.105 3.021.404 1.661.86 3.114 1.013 3.229.154.114.53 1.146.835 2.291.305 1.146.7 2.275.878 2.508.178.234.645 1.734 1.038 3.334.393 1.599.845 3.096 1.006 3.325.16.229.535 1.354.833 2.5.299 1.146.688 2.247.866 2.447.177.199.223.621.102.937-.121.316-.047.574.165.574.211 0 .627 1.219.923 2.709.296 1.489.675 2.708.841 2.708.167 0 .652 1.547 1.077 3.438.425 1.89.898 3.531 1.049 3.645.152.115.516 1.24.808 2.5.293 1.261.672 2.48.843 2.709.172.229.655 1.916 1.074 3.75.42 1.833.883 3.427 1.029 3.541.147.115.602 1.615 1.012 3.334.41 1.718.929 3.358 1.154 3.643.225.286.311.895.19 1.355-.12.46-.06.739.133.619.193-.119.478.631.633 1.666.156 1.036.425 1.883.599 1.883s.651 1.594 1.059 3.542c.409 1.948.877 3.542 1.041 3.542.163 0 .515 1.108.782 2.463s.739 2.996 1.05 3.646c.311.65.808 2.448 1.104 3.995.297 1.547.672 2.812.834 2.812.162 0 .537 1.219.834 2.709.296 1.489.673 2.708.839 2.708.166 0 .203.375.083.833-.119.459-.034.834.191.834.224 0 .648 1.13.941 2.512.293 1.382.678 2.602.856 2.711.177.11.653 1.604 1.058 3.321s.865 3.122 1.022 3.122c.158 0 .523.844.812 1.875.288 1.032.652 1.875.807 1.875.155 0 .624.775 1.041 1.721.721 1.632 1.211 2.299 3.222 4.383.475.493.738 1.1.584 1.35-.163.262-.052.371.262.257.298-.108 1.461.644 2.585 1.672 1.123 1.027 2.212 1.867 2.42 1.867.208 0 .263.186.123.412-.141.228.01.311.339.185.326-.126.862.017 1.191.317 1.231 1.121 4.831 2.755 7.233 3.282 1.366.299 2.578.656 2.693.792.114.137 1.426.493 2.915.793 1.489.299 2.845.762 3.014 1.028.17.266.311.313.314.106.004-.207.382-.038.84.377 1.764 1.596-.055 6.458-2.416 6.458-.275 0-.501.199-.501.442 0 .242-.187.325-.416.183-.229-.141-.417-.091-.417.113 0 1.625-19.852 1.723-23.542.116-.458-.2-2.895-.682-5.416-1.072-2.521-.39-4.677-.835-4.792-.988-.115-.153-1.582-.602-3.261-.997-2.836-.667-4.513-1.551-3.97-2.094.127-.126-.12-.138-.548-.026-.567.148-1.679-.747-4.103-3.305-4.473-4.719-5.469-6.1-4.874-6.759.164-.181.095-.215-.152-.074-.247.141-.903-.481-1.458-1.38-.555-.9-1.161-1.641-1.346-1.647-.185-.007-.221-.199-.08-.428.142-.229.094-.417-.106-.417s-.621-.656-.935-1.458c-.315-.802-.705-1.459-.866-1.459-.162 0-.612-.796-1.002-1.769-.389-.974-.847-1.864-1.018-1.979-.393-.267-3.364-6.463-3.364-7.018 0-.228-.142-.477-.315-.553-.173-.076-.966-1.434-1.762-3.018-.797-1.583-1.698-3.128-2.003-3.433-.305-.305-.583-.923-.617-1.374-.034-.451-.146-.735-.249-.632-.284.283-1.526-1.62-1.371-2.099.075-.229.027-.307-.107-.173-.332.332-5.847-5.139-5.704-5.66.062-.229-.018-.284-.18-.123-.162.162-1.349-.538-2.639-1.556a217.562 217.562 0 00-3.332-2.585 32.101 32.101 0 01-1.694-1.361c-.389-.344-1.351-.989-2.138-1.435-.787-.445-1.652-1.008-1.923-1.25-.27-.242-1.246-.894-2.168-1.449-.922-.555-1.604-1.125-1.516-1.268.088-.142-.204-.286-.649-.319-.444-.034-1.075-.307-1.4-.608-.326-.3-1.346-1-2.268-1.555-.922-.555-1.591-1.147-1.487-1.315.104-.169-.139-.222-.54-.118-.821.213-3.59-1.643-3.133-2.1.162-.161-.023-.172-.41-.023-.419.161-1.141-.074-1.784-.58-.594-.467-1.725-1.062-2.512-1.322-.788-.26-1.433-.625-1.433-.812 0-.186-.455-.453-1.012-.593-.557-.14-1.267-.509-1.579-.82-.311-.311-1.402-.974-2.424-1.473-3.952-1.927-4.875-2.533-6.876-4.515-3.384-3.354-3.911-4.611-3.932-9.365-.012-2.83.804-8.663 1.212-8.663.158 0 .527-.938.821-2.084.294-1.146.67-2.083.836-2.083.166 0 .638-1.065 1.048-2.366.776-2.461 1.575-3.637 2.132-3.135.178.161.189.057.023-.231-.311-.541.547-3.435 1.018-3.435.147 0 .514-.75.817-1.666.302-.917.688-1.667.858-1.667.169 0 .645-.938 1.057-2.083.412-1.146.885-2.084 1.051-2.084.165 0 .425-.564.576-1.253.152-.69.43-1.158.619-1.041.19.117.246-.163.126-.622-.122-.466-.013-.834.247-.834.256 0 .445-.14.421-.312-.086-.597.558-2.177.821-2.017.146.089.301-.504.344-1.318.044-.815.25-1.593.458-1.729.208-.137.702-1.655 1.099-3.374.396-1.718.94-3.575 1.209-4.126.685-1.403.681-21.609-.005-22.999-.271-.55-.815-2.922-1.209-5.27-.394-2.349-.859-4.271-1.033-4.271-.174 0-.45-.797-.613-1.771-.164-.974-.493-2.24-.731-2.813a39.289 39.289 0 01-.504-1.25 46.686 46.686 0 00-.555-1.381c-.268-.645-.486-1.304-.486-1.464 0-.161-.348-.945-.772-1.744-.425-.799-1.015-2.202-1.311-3.119-.296-.917-.658-1.76-.804-1.875-.147-.115-1.01-1.706-1.919-3.537s-1.875-3.566-2.146-3.857c-.272-.29-.612-.901-.757-1.358-.145-.457-.439-.831-.653-.831-.213 0-.344-.141-.29-.313.089-.281-.733-1.635-4.224-6.965-.595-.909-1.425-2.002-1.844-2.428-.444-.452-.652-1.061-.499-1.46.145-.376.131-.552-.03-.392-.422.423-1.868-1.378-1.551-1.934.147-.256.124-.338-.051-.182-.174.157-1.376-.9-2.671-2.348-3.947-4.417-4.854-5.016-7.632-5.046-1.326-.014-2.348.038-2.271.115.077.077-.606.886-1.518 1.797-1.71 1.71-2.232 6.141-.825 7.01.616.381 1.42 2.531 1.124 3.009-.128.208.105.256.518.107.413-.148.621-.126.463.049-.158.176-.1.534.129.796s.778 1.039 1.219 1.726c1.458 2.271 1.848 2.811 2.69 3.723 4.54 4.918 6.643 7.903 6.263 8.892-.146.381-.14.567.014.413.418-.417 1.139.496 2.052 2.597.448 1.032.924 1.969 1.058 2.084.134.114.503.864.821 1.666.318.802.699 1.552.848 1.667.148.115.617 1.146 1.041 2.292.423 1.146.99 2.458 1.259 2.916.269.459.727 1.724 1.017 2.813.289 1.088.664 1.979.832 1.979.168 0 .545 1.125.836 2.5.292 1.375.667 2.5.833 2.5.533 0 1.29 4.652 1.545 9.493.136 2.586.407 4.8.602 4.921.463.286.461 6.003-.002 6.003-.196 0-.468 1.828-.605 4.062-.24 3.918-.947 7.188-1.555 7.188-.161 0-.529.843-.818 1.875-.288 1.031-.699 1.875-.912 1.875-.213 0-.271.187-.129.416.141.23.088.417-.118.417-.207 0-.6.75-.875 1.667-.274.916-.645 1.666-.823 1.666-.178 0-.649 1.032-1.046 2.292-.398 1.26-.901 2.292-1.118 2.292-.217 0-.395.292-.395.649 0 .358-.17.545-.378.416-.208-.128-.287.114-.176.539.111.424-.061 1.034-.382 1.355-.32.32-.939 1.514-1.373 2.653-.435 1.139-1.125 2.725-1.533 3.525-.408.801-.742 1.791-.742 2.201 0 .41-.166.745-.37.745s-.708 1.266-1.12 2.813c-.413 1.546-.876 2.906-1.031 3.02-2.221 1.649-2.002 20.537.265 22.804.36.36.559 1.019.442 1.466-.117.447-.108.708.021.58.128-.129 1.039.747 2.026 1.944 1.595 1.938 4.293 4.363 6.782 6.095.471.328.745.779.607 1.002-.141.227-.034.271.242.1.42-.259 3.324 1.304 4.906 2.642.263.222 1.107.704 1.875 1.071s2.335 1.213 3.48 1.88c1.146.667 2.74 1.523 3.542 1.903.802.38 1.552.815 1.667.967.114.153 1.005.629 1.979 1.059.974.429 1.771.902 1.771 1.05 0 .149.656.507 1.458.797.802.29 1.458.687 1.458.883 0 .195.422.511.938.702 1.624.602 5.729 3.118 5.729 3.512 0 .207.192.377.427.377.424 0 4.591 2.737 4.989 3.278.115.155.739.62 1.388 1.033.681.434 1.085.992.958 1.323-.132.344-.01.493.305.372.769-.295 5.825 5.106 5.521 5.898-.135.351-.073.532.138.402.51-.315 1.727 1.454 1.398 2.032-.142.25-.105.315.081.146.363-.328 2.295 2.035 2.295 2.807 0 .255.478 1.109 1.061 1.899.584.789.976 1.763.872 2.164-.104.402-.053.646.113.544.503-.311 1.795 2.262 1.51 3.006-.147.383-.141.569.013.415.451-.451 1.227.578 2.038 2.702.416 1.088.883 1.979 1.039 1.979.155 0 .539.656.854 1.458.315.802.756 1.458.981 1.458.224 0 .294.114.155.253-.139.139-.071.467.15.729 1.242 1.47 2.907 4.472 2.682 4.835-.159.258.018.316.454.149.459-.176.615-.112.435.178-.153.248-.137.515.036.592.556.246 2.578 3.152 2.381 3.421-.105.143-.09.19.034.105.124-.086 1.389 1.065 2.813 2.557 1.423 1.492 3.653 3.606 4.955 4.697 1.302 1.092 2.246 2.107 2.096 2.257-.149.149.027.157.391.017.365-.14.928.011 1.253.336.324.324 1.286.841 2.137 1.149.851.308 1.547.689 1.547.847 0 .159 1.359.616 3.021 1.015 1.661.4 3.208.868 3.437 1.039.23.172 1.823.532 3.542.801 1.719.268 3.5.655 3.958.859 3.735 1.664 31.913 2.08 33.118.49.119-.156.403-.296.632-.31 2.562-.163 11.264-7.183 12.076-9.743.152-.477.403-.79.558-.694.156.097.268-1.541.25-3.639-.034-3.918-.802-8.606-1.41-8.606-.188 0-.45-.434-.583-.964-.133-.529-.717-1.514-1.298-2.187-.58-.673-.963-1.468-.85-1.767.117-.308.015-.424-.236-.269-.243.15-1.267-.588-2.275-1.64-2.064-2.154-3.741-2.73-8.002-2.746-1.433-.006-2.605-.159-2.605-.341 0-.182-1.122-.58-2.495-.885-1.372-.304-2.9-.905-3.397-1.336-.496-.43-1.069-.782-1.273-.782-.718 0-4.484-3.857-4.219-4.322.147-.258.119-.335-.063-.171-.523.472-1.812-1.467-2.376-3.577-.284-1.061-.633-1.93-.777-1.93-.143 0-.61-1.406-1.038-3.125-.428-1.719-.905-3.125-1.059-3.125-.154 0-.614-1.594-1.023-3.542-.409-1.948-.88-3.541-1.048-3.541-.167 0-.534-1.219-.815-2.709-.281-1.489-.65-2.708-.82-2.708-.17 0-.64-1.547-1.044-3.437-.404-1.891-.894-3.638-1.09-3.883-.196-.245-.57-1.464-.833-2.708-.262-1.245-.641-2.468-.841-2.719-.201-.25-.246-.574-.101-.719.146-.145.071-.503-.165-.795-.237-.292-.674-1.656-.971-3.031-.298-1.375-.667-2.593-.821-2.708-.153-.115-.609-1.708-1.012-3.542-.403-1.833-.905-3.442-1.116-3.575-.21-.133-.422-1.098-.471-2.144-.05-1.046-.231-1.817-.402-1.713-.172.105-.313-.185-.313-.643 0-.459-.172-.94-.382-1.07-.21-.13-.718-1.688-1.128-3.462-.411-1.774-.867-3.32-1.014-3.434-.146-.115-.601-1.615-1.011-3.334-.41-1.718-.889-3.312-1.065-3.541-.175-.229-.535-1.261-.8-2.292s-.737-2.437-1.049-3.125c-.311-.687-.806-2.422-1.1-3.854-.294-1.432-.664-2.604-.821-2.604-.158 0-.419-.703-.58-1.563-.161-.859-.63-2.312-1.042-3.229-.413-.917-.988-2.745-1.279-4.062-.29-1.318-.656-2.396-.812-2.396-.156 0-.533-1.04-.838-2.311-.305-1.272-.713-2.409-.907-2.529-.194-.12-.231-.413-.084-.652.148-.239.04-.576-.24-.749-.279-.173-.537-1.07-.574-1.994-.036-.924-.206-1.594-.378-1.49-.172.105-.313-.196-.313-.667 0-.472-.156-.858-.347-.858-.19 0-.697-1.407-1.125-3.125-.428-1.719-.892-3.125-1.032-3.125s-.502-.985-.804-2.188c-.302-1.203-.695-2.375-.873-2.604-.178-.229-.645-1.542-1.038-2.917-.393-1.375-.863-2.687-1.044-2.916-.181-.229-.644-1.636-1.028-3.125-.385-1.49-.854-2.896-1.042-3.125-.189-.229-.588-1.636-.887-3.125-.299-1.49-.672-2.802-.828-2.917-.34-.249-1.618-9.806-1.618-12.097 0-.882-.188-1.72-.417-1.861-.496-.307-.581-13.959-.087-13.959.182 0 .667-3.515 1.077-7.812.411-4.297.897-8 1.08-8.229.182-.229.57-2.995.86-6.146.291-3.151.702-5.729.914-5.729.212 0 .347-.797.3-1.771-.047-.974.053-2.099.222-2.5.705-1.676.465-11.004-.304-11.86-.402-.447-.636-.906-.521-1.021.253-.253-.014-.296-3.827-.61-2.819-.232-3.051-.185-3.958.801M96.494 267.883c.096.096-.154.537-.556.981-.879.972-1.029 5.647-.212 6.631.284.343.393.747.243.898-.151.15-.056.274.212.274.621 0 .657 3.623.038 3.829-.246.083-.554 1.326-.685 2.764l-.237 2.615 1.895-.125c1.042-.069 1.815-.254 1.718-.411-.097-.157.243-1 .754-1.875 1.267-2.164 1.398-8.209.198-9.088-.645-.472-.742-1.034-.625-3.614l.138-3.054h-1.528c-.84 0-1.449.079-1.353.175m12.891-.011c-2.85.436-3.522 4.143-1.477 8.154.819 1.605 1.158 3.798.53 3.417-.172-.104-.354.68-.405 1.742-.05 1.062-.284 1.996-.52 2.075-.631.21-.523 1.56.17 2.136 1.215 1.008 2.763.344 3.837-1.646 1.049-1.945 1.431-10.328.442-9.717-.719.445-1.016-.756-.902-3.653.062-1.584.083-2.853.047-2.821-.036.033-.811.173-1.722.313m24.584 0c-2.897.443-3.915 7.154-1.344 8.854.649.43.474 3.568-.238 4.28-.715.715-1.356 3.72-.938 4.395.872 1.412 4.801-.789 4.801-2.69 0-.307.211-.629.469-.714.602-.201.63-5.742.031-6.112-.71-.439-1.429-3.991-1.271-6.273.08-1.162.146-2.086.146-2.053 0 .033-.745.173-1.656.313m33.734.036c.113.182-.075.563-.416.846-.674.559-.918 5.829-.27 5.829.646 0 1.422 3.215 1.17 4.849-.136.885-.373 2.688-.525 4.006l-.278 2.395h1.308c1.932 0 1.943-.004 1.809-.658-.068-.331.143-.705.469-.83 1.431-.549 1.976-8.429.69-9.977-.353-.427-.513-1.608-.451-3.333.096-2.624.076-2.676-1.077-2.92-2.416-.511-2.628-.53-2.429-.207m37.725-.041c-2.357.42-3.675 6.732-1.665 7.975.916.566.828 5.496-.117 6.542-.96 1.062-.94 2.89.037 3.413 1.014.543 3.226.265 3.072-.386-.067-.279.215-1.002.625-1.605.835-1.23.954-12.874.137-13.379-.224-.138-.453-.853-.509-1.589-.056-.736-.109-1.313-.117-1.283-.009.03-.667.171-1.463.312m10.377-.179c-.016.011-.1.564-.187 1.228s-.355 1.404-.596 1.645c-.521.521-.585 2.854-.094 3.418.751.864 1.412 3.926 1.176 5.453-.137.885-.373 2.688-.526 4.006l-.277 2.395h1.308c1.738 0 1.955-.086 1.809-.722-.068-.296.143-.641.469-.766 1.526-.586 1.959-8.553.549-10.111-.49-.542-.686-1.539-.686-3.492v-2.734l-1.458-.17c-.802-.094-1.472-.161-1.487-.15m14.82.118c-1.478.213-2.65 1.168-3.205 2.611-.451 1.172.343 5.833.995 5.833.211 0 .268.188.127.417-.142.229-.059.416.183.416.607 0 .559 2.633-.058 3.25-.275.275-.322.503-.104.507.217.003.131.173-.192.378-.345.219-.667 1.333-.781 2.702l-.193 2.33h1.51c.83 0 1.51-.208 1.51-.461 0-.254.291-.35.646-.213.356.136.541.076.412-.133-.273-.44.597-2.593 1.225-3.032.65-.455.544-6.951-.12-7.361-.375-.232-.558-1.463-.588-3.944-.024-1.983-.06-3.578-.08-3.544-.02.035-.599.144-1.287.244m9.984.025c.111.111-.262.752-.829 1.425-1.306 1.553-1.109 6.994.254 6.994 1.046 0 1.264 2.971.356 4.847-1.683 3.477-.684 6.863 1.408 4.772.601-.602 1.247-.58.871.029-.186.3-.115.368.19.179.268-.166.369-.494.224-.729-.146-.235.179-1.019.722-1.742 1.091-1.454 1.483-7.481.526-8.1-1.105-.715-1.511-3.339-.723-4.673.967-1.637.411-2.616-1.679-2.956-.837-.136-1.431-.157-1.32-.046m23.112-.188c-.015.036-.099.609-.186 1.273-.087.664-.355 1.404-.596 1.645-.594.594-.556 2.489.061 3.106.275.275.378.5.23.5-.149 0 .001.65.333 1.445.687 1.643.838 6.249.192 5.849-.227-.14-.312.007-.19.326.123.319-.067.82-.421 1.114-.958.795-.8 2.311.294 2.806 1.414.64 3.046.391 2.897-.442-.068-.381.143-.795.469-.92 1.526-.586 1.958-8.553.548-10.111-.743-.822-.947-3.401-.269-3.401 1.079 0 .414-2.484-.729-2.725-2.079-.438-2.604-.531-2.633-.465m13.181.231c.101.101-.137.537-.527.969-.45.496-.677 1.351-.619 2.325.051.847.117 4.587.146 8.311.054 6.74.059 6.771.998 6.771.983 0 3.1-2.131 3.1-3.122 0-.307.234-.637.521-.732.761-.254.721-6.886-.044-7.359-.403-.249-.559-1.309-.543-3.693l.022-3.344-1.619-.154c-.89-.085-1.536-.072-1.435.028m34.579-.05c-.095.096-.073.437.051.758.123.322.016.585-.237.585-.294 0-.462 1.062-.462 2.916 0 1.87.167 2.917.466 2.917.26 0 .369.367.247.834-.12.459-.07.742.112.63.182-.113.443.215.581.728.351 1.312.321 2.894-.051 2.665-.172-.105-.335.391-.362 1.103-.026.712-.261 1.366-.521 1.452-1.36.454-.505 3.421.987 3.421 1.885 0 2.107-.078 1.966-.695-.113-.489 1.295-1.529 1.625-1.2.087.088.196-.247.241-.744.045-.496.208-1.959.36-3.251.182-1.533.089-2.909-.265-3.959-.299-.885-.649-3.015-.777-4.734l-.234-3.125-1.776-.237c-.978-.131-1.855-.159-1.951-.064m-227.304.705c-1.151 1.388-.787 8.442.478 9.223.493.305.429 3.081-.072 3.081-.229 0-.416.364-.416.809 0 .445-.188.925-.417 1.066-.789.488-.467 2.652.469 3.153 1.401.75 2.816-.252 3.391-2.403.264-.985.628-1.791.81-1.791.463 0 .414-5.164-.054-5.646-.211-.218-.445-2.096-.521-4.173l-.137-3.777-1.5-.091c-.932-.056-1.701.152-2.031.549m35.527.221c-.12.458-.383.833-.586.833-.582 0-.444 4.072.144 4.268.725.242.733 9.235.009 9.96-.944.947-.646 2.439.487 2.439 1.424 0 2.325-.413 2.325-1.066 0-.307.328-.75.73-.984.401-.234.584-.43.407-.437-.178-.007-.046-.435.291-.95 1.073-1.64 1.228-4.209.447-7.399-.481-1.963-.636-3.639-.459-4.973.295-2.225.02-2.524-2.322-2.524-.905 0-1.316.232-1.473.833m24.376-.104c-1.255 1.447-1.13 8.021.153 8.021.768 0 .37 4.635-.492 5.73-.508.646-.807 1.587-.754 2.372.091 1.344.204 1.388 2.9 1.129.373-.035.925-.674 1.226-1.419.302-.745.718-1.47.925-1.612.531-.364.432-8.446-.106-8.626-.238-.079-.435-1.113-.438-2.297-.01-3.943-1.558-5.438-3.414-3.298m11.587.561c-.928 1.861-.845 4.858.19 6.851.895 1.723.853 4.344-.089 5.479-.244.294-.336.819-.203 1.166s.061.63-.161.63c-.57 0-.503 1.402.096 2 2.975 2.975 7.118-7.623 4.23-10.819-.588-.651-.772-1.513-.772-3.622v-2.767l-1.312-.127c-1.117-.109-1.411.07-1.979 1.209m24.406-.326c-.499.53-.906 1.28-.906 1.667 0 .386-.188.702-.417.702-.229 0-.417.281-.417.625s.188.625.417.625c.229 0 .417.366.417.814 0 .971.824 2.927 1.557 3.695.736.77.656 3.218-.129 4.003-.36.361-.762 1.687-.892 2.947l-.236 2.291h1.278c1.338 0 2.698-1.277 3.252-3.055.155-.497.458-1.017.673-1.155.52-.335.537-5.818.019-6.153-1.021-.661-1.52-3.292-.952-5.016.927-2.808-1.604-4.183-3.664-1.99m11.838-.171c-.969 1.071-.828 6.922.181 7.546.8.494.854 4.461.068 4.947-.301.186-.687 1.362-.857 2.614l-.309 2.276 1.307-.234c2.81-.503 4.782-3.311 4.782-6.81 0-1.753-.787-4.94-1.311-5.31-.171-.12-.368-1.433-.437-2.916-.144-3.059-1.699-4.019-3.424-2.113m59.991-.157c-1.256.95-1.406 4.918-.28 7.391 1.102 2.42 1.135 4.867.083 6.204-.812 1.032-1.009 1.664-.921 2.956.104 1.535 4.407.354 4.932-1.354.326-1.061.667-1.634.89-1.496.148.092.269-1.391.269-3.295 0-1.905-.131-3.382-.291-3.283-.161.099-.416-.481-.568-1.289-.151-.809-.442-1.47-.646-1.47-.203 0-.37-1.125-.37-2.5 0-2.732-1.087-3.385-3.098-1.864m36.394.144c-.747.605-1.018 1.348-1.206 3.312-.133 1.392-.162 2.452-.066 2.356.341-.341 1.776 2.821 1.549 3.413-.128.333-.047.486.182.344.226-.14.41.085.408.499-.005.939-1.847 4.806-2.147 4.506-.121-.121-.105.484.034 1.343.482 2.964 3.075 2.417 4.816-1.017 1.175-2.317 1.925-8.368.963-7.774-.181.112-.329-.171-.329-.63 0-.458-.187-.949-.417-1.091-.229-.141-.416-1.559-.416-3.149v-2.892h-1.204c-.662 0-1.637.351-2.167.78m11.602.044c-1.496 1.177-1.786 7.092-.347 7.092.435 0 1.282 1.945 1.282 2.943 0 1.158-.973 4.141-1.351 4.141-.173 0-.315.75-.315 1.666 0 3.394 3.925 1.543 5.192-2.449.315-.994.561-6.777.275-6.491-.258.259-1.717-2.841-1.717-3.648 0-.41.218-.745.486-.745.267 0 .363-.123.212-.274-.151-.151-.076-.514.168-.807 1.454-1.752-1.903-2.987-3.885-1.428m-185.697 28.322c-28.938.18-36.877.34-37.014.75-.095.286-.411.52-.703.52-.291 0-1.014.449-1.606.998-.592.549-1.182.924-1.311.834-.128-.091-.153-.053-.054.085.1.137-.206.992-.68 1.899-1.829 3.51-.745 7.342 3.324 11.757l1.777 1.927h97.491c58.402 0 97.492-.152 97.492-.379 0-.224 10.901-.438 26.425-.521l26.425-.141 1.001-.942c.551-.517 1.159-.799 1.351-.625.191.174.226.104.077-.157-.148-.26.02-.715.375-1.009 4.006-3.324 2.566-11.04-2.574-13.789-2.738-1.465-90.101-1.963-211.796-1.207m-68.922 42.763c.095.248-.662 1.222-1.684 2.163-1.021.942-2.098 2.379-2.393 3.195-.295.815-.686 1.483-.869 1.483-.183 0-.333 1.125-.333 2.5s.146 2.5.325 2.5c.476 0 1.36 2.549 1.056 3.042-.154.248-.049.29.255.102.308-.191.962.094 1.627.71 1.31 1.211 3.778 2.471 4.259 2.174.185-.115.455-.018.599.215.176.285 50.446.423 154.416.423h154.155l1.966-2.019c3.447-3.538 3.842-4.294 3.842-7.342 0-3.375-2.565-8.139-4.383-8.139a.813.813 0 01-.721-.52c-.138-.415-31.904-.564-156.232-.73-111.926-.149-156.009-.08-155.885.243M8.166 382.752c-.151.393-.521.566-.899.421-.354-.136-.542-.082-.417.12.266.43-1.866 1.951-2.475 1.765-.229-.07-.292-.003-.14.15.153.152-.171.936-.718 1.743-1.207 1.779-1.637 3.825-1.235 5.885.164.846.321 1.858.348 2.248.027.39.111.648.186.572.076-.076.671.355 1.323.957a46.219 46.219 0 001.865 1.641c.375.3.591.691.482.868-.11.177.074.385.407.461 2.218.506 386.735.157 386.228-.351-.291-.291 1.597-1.541 2.087-1.382.229.075.292.011.14-.141-.152-.152.171-.937.718-1.743 1.259-1.855 1.62-3.77 1.186-6.281-.189-1.087-.322-2.224-.297-2.525.025-.302-.035-.469-.133-.371-.098.098-.951-.529-1.895-1.392-2.41-2.203.091-2.09-51.385-2.33-27.457-.129-46.83-.376-47.063-.601-.797-.771-288.017-.486-288.313.286"/></svg>